<svg width="38" height="30" viewBox="0 0 38 30" fill="none" xmlns="http://www.w3.org/2000/svg">
<rect x="10.7207" y="26.2499" width="17.5385" height="3.75012" rx="1.87506" fill="#F98E38"/>
<ellipse cx="9.26082" cy="10.7815" rx="7.30769" ry="7.03148" fill="#E3F8E3"/>
<ellipse cx="27.7684" cy="12.6547" rx="8.28205" ry="7.96901" fill="#E3F8E3"/>
<ellipse cx="17.0552" cy="8.90655" rx="9.25641" ry="8.90655" fill="#E3F8E3"/>
<path d="M37.9819 14.86C36.803 22.6301 30.4283 25.9946 28.5293 26.8325C28.1975 26.9785 27.8375 27.0547 27.4704 27.0547L10.4642 27.188C10.0194 27.188 9.5747 27.0928 9.18643 26.8896C2.34584 23.2395 0.496263 17.8754 0.0232802 14.7331C-0.181443 13.3809 0.990423 12.1875 2.50114 12.1875L35.5181 12.2891C37.0359 12.2891 38.1866 13.5079 37.9748 14.86H37.9819Z" fill="#FFE073"/>
</svg>
