<svg width="32" height="32" viewBox="0 0 32 32" fill="none" xmlns="http://www.w3.org/2000/svg">
<path d="M17.861 27.2556C16.3826 28.9296 15.13 27.2556 15.13 27.2556L5.3792 9.67437C4.46699 8.02962 4.58711 6.00205 6.16497 4.97848C7.90866 3.84733 10.7995 2.59016 15.31 2.211C21.2005 2.21079 25.4633 3.42405 27.4676 5.77374C28.3408 6.79741 28.1483 8.25896 27.5292 9.45354C25.099 14.1425 18.8343 26.1536 17.861 27.2556Z" fill="#FFD967"/>
<path d="M2.00006 6.8499C2.00006 7.65582 2.74648 8.78438 3.95623 8.84079C4.46875 8.86469 5.29165 8.46173 5.7031 8.05877C6.85565 6.81151 9.16925 3.59023 15.8149 3.69091C22.4606 3.79158 25.0195 5.9278 26.8699 8.05877C27.4964 8.78028 28.641 8.82528 29.2014 8.46173C30.0315 7.92479 30.2324 7.06355 29.7196 5.89459C28.4877 3.126 23.7189 -0.263423 15.006 0.0162322C10.417 0.161653 5.35737 1.63264 2.34381 5.50867C2.13234 5.77714 2.0636 6.15188 2.01602 6.47068L2.00006 6.8499Z" fill="#FF9200"/>
<path d="M14.8708 13.2629C16.5425 13.2629 17.8978 11.9433 17.8978 10.3156C17.8978 8.68788 16.5425 7.36835 14.8708 7.36835C13.199 7.36835 11.8438 8.68788 11.8438 10.3156C11.8438 11.9433 13.199 13.2629 14.8708 13.2629Z" fill="#FF9200"/>
<path d="M22.957 18.2983C22.957 18.2983 20.1325 16.8696 18.4165 19.4036C16.9815 21.8434 19.9301 23.8245 19.9301 23.8245L22.957 18.2983Z" fill="#FF9200"/>
<rect width="1.28347" height="3.06671" rx="0.641737" transform="matrix(-0.782799 -0.622275 0.642536 -0.766256 13.4912 19.3055)" fill="#44AF94" stroke="#44AF94" stroke-width="0.845137"/>
<rect width="1.27941" height="2.75353" rx="0.639705" transform="matrix(0.703085 -0.711106 0.729607 0.683866 20.9219 11.2246)" fill="#44AF94" stroke="#44AF94" stroke-width="0.845137"/>
</svg>
