<svg width="20" height="20" viewBox="0 0 20 20" fill="none" xmlns="http://www.w3.org/2000/svg">
<path fill-rule="evenodd" clip-rule="evenodd" d="M9.99935 3.18166C6.23377 3.18166 3.18117 6.23426 3.18117 9.99984C3.18117 13.7654 6.23377 16.818 9.99935 16.818C13.7649 16.818 16.8175 13.7654 16.8175 9.99984C16.8175 6.23426 13.7649 3.18166 9.99935 3.18166ZM1.66602 9.99984C1.66602 5.39746 5.39698 1.6665 9.99935 1.6665C14.6017 1.6665 18.3327 5.39746 18.3327 9.99984C18.3327 14.6022 14.6017 18.3332 9.99935 18.3332C5.39698 18.3332 1.66602 14.6022 1.66602 9.99984Z" fill="currentColor"/>
<path fill-rule="evenodd" clip-rule="evenodd" d="M9.99935 8.75C10.4596 8.75 10.8327 9.1231 10.8327 9.58333V12.9167C10.8327 13.3769 10.4596 13.75 9.99935 13.75C9.53911 13.75 9.16602 13.3769 9.16602 12.9167V9.58333C9.16602 9.1231 9.53911 8.75 9.99935 8.75Z" fill="currentColor"/>
<path fill-rule="evenodd" clip-rule="evenodd" d="M9.16602 6.66683C9.16602 6.20659 9.53911 5.8335 9.99935 5.8335H10.0077C10.4679 5.8335 10.841 6.20659 10.841 6.66683C10.841 7.12707 10.4679 7.50016 10.0077 7.50016H9.99935C9.53911 7.50016 9.16602 7.12707 9.16602 6.66683Z" fill="currentColor"/>
</svg>
